<svg aria-hidden="true" style="position: absolute; width: 0; height: 0; overflow: hidden;" version="1.1" xmlns="http://www.w3.org/2000/svg" xmlns:xlink="http://www.w3.org/1999/xlink">
<defs>
<symbol id="icon-arrow" viewBox="0 0 32 32">
<path fill="none" stroke="#fcf7e6" style="stroke: var(--color1, #fcf7e6)" stroke-linejoin="round" stroke-linecap="round" stroke-miterlimit="4" stroke-width="2.6667" d="M8 12l8 8 8-8"></path>
</symbol>
<symbol id="icon-alert-circle" viewBox="0 0 32 32">
<path fill="none" stroke="#fcf7e6" style="stroke: var(--color1, #fcf7e6)" stroke-linejoin="round" stroke-linecap="round" stroke-miterlimit="4" stroke-width="2.6667" d="M16 29.333c7.364 0 13.333-5.97 13.333-13.333s-5.97-13.333-13.333-13.333c-7.364 0-13.333 5.97-13.333 13.333s5.97 13.333 13.333 13.333z"></path>
<path fill="none" stroke="#fcf7e6" style="stroke: var(--color1, #fcf7e6)" stroke-linejoin="round" stroke-linecap="round" stroke-miterlimit="4" stroke-width="2.6667" d="M16 10.667v5.333"></path>
<path fill="none" stroke="#fcf7e6" style="stroke: var(--color1, #fcf7e6)" stroke-linejoin="round" stroke-linecap="round" stroke-miterlimit="4" stroke-width="2.6667" d="M16 21.333h0.013"></path>
</symbol>
<symbol id="icon-logo" viewBox="0 0 32 32">
<path d="M16 32c-8.822 0-16-7.177-16-16s7.178-16 16-16c8.823 0 16 7.178 16 16s-7.177 16-16 16zM16 2.31c-7.548 0-13.69 6.141-13.69 13.69s6.141 13.69 13.69 13.69c7.548 0 13.69-6.141 13.69-13.69s-6.141-13.69-13.69-13.69z"></path>
<path d="M12.394 10.667l3.191 10.417h0.119l3.191-10.417h3.86l-4.815 14.222h-4.592l-4.815-14.222h3.86z"></path>
</symbol>
<symbol id="icon-logo-text" viewBox="0 0 63 32">
<path d="M3.197 0l2.643 8.707h0.098l2.643-8.707h3.197l-3.988 11.889h-3.804l-3.988-11.889h3.197z"></path>
<path d="M16.127 12.057c-0.931 0-1.732-0.192-2.401-0.575-0.666-0.387-1.179-0.925-1.541-1.614-0.358-0.693-0.537-1.496-0.537-2.409 0-0.917 0.179-1.72 0.537-2.409 0.362-0.693 0.875-1.231 1.541-1.614 0.669-0.387 1.47-0.58 2.401-0.58s1.73 0.194 2.395 0.58c0.67 0.383 1.183 0.921 1.541 1.614 0.362 0.689 0.543 1.492 0.543 2.409 0 0.913-0.181 1.716-0.543 2.409-0.358 0.689-0.871 1.227-1.541 1.614-0.666 0.383-1.464 0.575-2.395 0.575zM16.145 9.915c0.339 0 0.625-0.104 0.86-0.313s0.414-0.499 0.537-0.871c0.127-0.372 0.19-0.801 0.19-1.289 0-0.495-0.063-0.929-0.19-1.3-0.123-0.372-0.302-0.662-0.537-0.871s-0.521-0.313-0.86-0.313c-0.35 0-0.646 0.104-0.889 0.313-0.239 0.209-0.421 0.499-0.548 0.871-0.123 0.372-0.185 0.805-0.185 1.3 0 0.488 0.062 0.917 0.185 1.289 0.127 0.372 0.31 0.662 0.548 0.871 0.242 0.209 0.539 0.313 0.889 0.313z"></path>
<path d="M26.19 12.057c-0.931 0-1.732-0.192-2.401-0.575-0.666-0.387-1.179-0.925-1.541-1.614-0.358-0.693-0.537-1.496-0.537-2.409 0-0.917 0.179-1.72 0.537-2.409 0.362-0.693 0.875-1.231 1.541-1.614 0.669-0.387 1.47-0.58 2.401-0.58s1.73 0.194 2.395 0.58c0.67 0.383 1.183 0.921 1.541 1.614 0.362 0.689 0.543 1.492 0.543 2.409 0 0.913-0.181 1.716-0.543 2.409-0.358 0.689-0.871 1.227-1.541 1.614-0.666 0.383-1.464 0.575-2.395 0.575zM26.207 9.915c0.339 0 0.625-0.104 0.86-0.313s0.414-0.499 0.537-0.871c0.127-0.372 0.19-0.801 0.19-1.289 0-0.495-0.063-0.929-0.19-1.3-0.123-0.372-0.302-0.662-0.537-0.871s-0.521-0.313-0.86-0.313c-0.35 0-0.646 0.104-0.889 0.313-0.239 0.209-0.421 0.499-0.548 0.871-0.123 0.372-0.185 0.805-0.185 1.3 0 0.488 0.062 0.917 0.185 1.289 0.127 0.372 0.31 0.662 0.548 0.871 0.242 0.209 0.539 0.313 0.889 0.313z"></path>
<path d="M36.484 11.889h-4.369v-11.889h4.363c1.204 0 2.241 0.238 3.111 0.714 0.873 0.472 1.547 1.153 2.020 2.043 0.473 0.886 0.71 1.947 0.71 3.181 0 1.238-0.237 2.303-0.71 3.193-0.469 0.89-1.141 1.573-2.014 2.049-0.873 0.472-1.91 0.708-3.111 0.708zM34.972 9.439h1.403c0.662 0 1.222-0.112 1.68-0.337 0.462-0.228 0.81-0.598 1.045-1.109 0.239-0.515 0.358-1.2 0.358-2.055s-0.119-1.536-0.358-2.043c-0.239-0.511-0.591-0.878-1.056-1.103-0.462-0.228-1.031-0.342-1.708-0.342h-1.362v6.989z"></path>
<path d="M48.125 12.057c-0.931 0-1.732-0.192-2.401-0.575-0.666-0.387-1.179-0.925-1.541-1.614-0.358-0.693-0.537-1.496-0.537-2.409 0-0.917 0.179-1.72 0.537-2.409 0.362-0.693 0.875-1.231 1.541-1.614 0.669-0.387 1.47-0.58 2.401-0.58s1.73 0.194 2.395 0.58c0.669 0.383 1.183 0.921 1.541 1.614 0.362 0.689 0.543 1.492 0.543 2.409 0 0.913-0.181 1.716-0.543 2.409-0.358 0.689-0.872 1.227-1.541 1.614-0.666 0.383-1.464 0.575-2.395 0.575zM48.142 9.915c0.339 0 0.625-0.104 0.86-0.313s0.414-0.499 0.537-0.871c0.127-0.372 0.19-0.801 0.19-1.289 0-0.495-0.063-0.929-0.19-1.3-0.123-0.372-0.302-0.662-0.537-0.871s-0.521-0.313-0.86-0.313c-0.35 0-0.646 0.104-0.889 0.313-0.239 0.209-0.421 0.499-0.548 0.871-0.123 0.372-0.185 0.805-0.185 1.3 0 0.488 0.062 0.917 0.185 1.289 0.127 0.372 0.31 0.662 0.548 0.871 0.242 0.209 0.539 0.313 0.889 0.313z"></path>
<path d="M58.188 12.057c-0.931 0-1.732-0.192-2.401-0.575-0.666-0.387-1.179-0.925-1.541-1.614-0.358-0.693-0.537-1.496-0.537-2.409 0-0.917 0.179-1.72 0.537-2.409 0.362-0.693 0.875-1.231 1.541-1.614 0.669-0.387 1.47-0.58 2.401-0.58s1.73 0.194 2.395 0.58c0.669 0.383 1.183 0.921 1.541 1.614 0.362 0.689 0.543 1.492 0.543 2.409 0 0.913-0.181 1.716-0.543 2.409-0.358 0.689-0.872 1.227-1.541 1.614-0.666 0.383-1.464 0.575-2.395 0.575zM58.205 9.915c0.339 0 0.625-0.104 0.86-0.313s0.414-0.499 0.537-0.871c0.127-0.372 0.19-0.801 0.19-1.289 0-0.495-0.063-0.929-0.19-1.3-0.123-0.372-0.302-0.662-0.537-0.871s-0.521-0.313-0.86-0.313c-0.35 0-0.646 0.104-0.889 0.313-0.239 0.209-0.421 0.499-0.548 0.871-0.123 0.372-0.185 0.805-0.185 1.3 0 0.488 0.062 0.917 0.185 1.289 0.127 0.372 0.31 0.662 0.548 0.871 0.242 0.209 0.539 0.313 0.889 0.313z"></path>
<path d="M0.127 22.277v-2.334h9.991v2.334h-3.584v9.555h-2.817v-9.555h-3.59z"></path>
<path d="M14.371 32c-0.927 0-1.728-0.184-2.401-0.551-0.67-0.372-1.185-0.9-1.547-1.585-0.358-0.689-0.537-1.507-0.537-2.456 0-0.921 0.181-1.726 0.543-2.415 0.362-0.693 0.872-1.231 1.53-1.614 0.658-0.387 1.433-0.58 2.326-0.58 0.631 0 1.208 0.099 1.731 0.296s0.975 0.49 1.356 0.877 0.677 0.865 0.889 1.434c0.212 0.565 0.317 1.213 0.317 1.945v0.708h-7.705v-1.649h5.079c-0.004-0.302-0.075-0.571-0.214-0.807s-0.329-0.42-0.571-0.551c-0.239-0.135-0.514-0.203-0.825-0.203-0.316 0-0.598 0.072-0.848 0.215-0.25 0.139-0.448 0.331-0.594 0.575-0.146 0.24-0.223 0.513-0.231 0.819v1.678c0 0.364 0.071 0.683 0.214 0.958 0.142 0.271 0.344 0.482 0.606 0.633s0.573 0.226 0.935 0.226c0.25 0 0.477-0.035 0.681-0.105s0.379-0.172 0.525-0.308c0.146-0.135 0.256-0.302 0.329-0.499l2.591 0.075c-0.108 0.584-0.344 1.093-0.71 1.527-0.362 0.43-0.837 0.764-1.426 1.004-0.589 0.236-1.27 0.354-2.043 0.354z"></path>
<path d="M27.76 25.638l-2.591 0.070c-0.027-0.186-0.1-0.35-0.219-0.493-0.119-0.147-0.275-0.261-0.467-0.342-0.189-0.085-0.408-0.128-0.658-0.128-0.327 0-0.606 0.066-0.837 0.197-0.227 0.132-0.339 0.31-0.335 0.534-0.004 0.174 0.065 0.325 0.208 0.453 0.146 0.128 0.406 0.23 0.779 0.308l1.708 0.325c0.885 0.17 1.543 0.453 1.974 0.848 0.435 0.395 0.654 0.917 0.658 1.567-0.004 0.611-0.185 1.144-0.543 1.596-0.354 0.453-0.839 0.805-1.454 1.056-0.616 0.248-1.32 0.372-2.112 0.372-1.266 0-2.264-0.261-2.995-0.784-0.727-0.526-1.143-1.231-1.247-2.113l2.788-0.070c0.062 0.325 0.221 0.573 0.479 0.743s0.587 0.255 0.987 0.255c0.362 0 0.656-0.068 0.883-0.203s0.342-0.315 0.346-0.54c-0.004-0.201-0.092-0.362-0.265-0.482-0.173-0.124-0.444-0.221-0.814-0.29l-1.547-0.296c-0.889-0.163-1.551-0.462-1.985-0.9-0.435-0.441-0.65-1.002-0.646-1.683-0.004-0.596 0.154-1.105 0.473-1.527 0.319-0.426 0.773-0.751 1.362-0.975s1.283-0.337 2.084-0.337c1.201 0 2.147 0.253 2.84 0.76 0.693 0.503 1.075 1.196 1.149 2.078z"></path>
<path d="M34.373 22.915v2.090h-5.593v-2.090h5.593zM29.952 20.779h2.822v8.249c0 0.174 0.027 0.315 0.081 0.424 0.058 0.105 0.14 0.18 0.248 0.226 0.108 0.043 0.237 0.064 0.387 0.064 0.108 0 0.221-0.010 0.341-0.029 0.123-0.023 0.215-0.043 0.277-0.058l0.427 2.049c-0.135 0.039-0.325 0.087-0.571 0.145-0.242 0.058-0.533 0.095-0.871 0.11-0.662 0.031-1.229-0.046-1.703-0.232-0.469-0.19-0.829-0.484-1.079-0.882-0.246-0.399-0.366-0.9-0.358-1.503v-8.562z"></path>
</symbol>
</defs>
</svg>
